# xmcd
#
# Track frame offsets: 
#        150
#        12827
#        25224
#        45048
#        56636
#        72272
#        88579
#        101009
#        112425
#        125478
#        140134
#        153087
#        171541
#        182970
#
# Disc length: 2588 seconds
#
# Revision: 2
# Processed by: cddbd v1.5.2PL0 Copyright (c) Steve Scherf et al.
# Submitted via: ExactAudioCopy v1.0b1
#
DISCID=c40a1a0e
DTITLE=Dale Watson - Blessed Or Damned
DYEAR=1900
DGENRE=Country
TTITLE0=Truckin' Man
TTITLE1=Honkiest Tonkiest Beer Joint
TTITLE2=Blessed Or Damned
TTITLE3=Cowboy Lloyd Cross
TTITLE4=A Real Country Song
TTITLE5=Poor Baby
TTITLE6=It's Over Again
TTITLE7=Fly Away
TTITLE8=It's All Behind Us Now
TTITLE9=That's What I Like About Texas
TTITLE10=Everyone Knew But Me
TTITLE11=Sweet Jessie Brown
TTITLE12=Truckstop In La Grange
TTITLE13=Shortcut To The Streets Of Gold
EXTD=
EXTT0=
EXTT1=
EXTT2=
EXTT3=
EXTT4=
EXTT5=
EXTT6=
EXTT7=
EXTT8=
EXTT9=
EXTT10=
EXTT11=
EXTT12=
EXTT13=
PLAYORDER=
